<svg id="colour" xmlns="http://www.w3.org/2000/svg" viewBox="0 0 10.83 11.91"><defs><style>.cls-1{fill:#2c7a7b;}.cls-2{fill:#4fd1c5;opacity:0.5;}.cls-2,.cls-3{isolation:isolate;}.cls-3{fill:#faf089;opacity:0.8;}</style></defs><title>illustrapi-mark</title><g id="logo"><path id="teal_petal" data-name="teal petal" class="cls-1" d="M4.82,0A5.39,5.39,0,0,0,2.69,2a7.77,7.77,0,0,0-1.06,3.2A7.34,7.34,0,0,0,1.91,8.5a5,5,0,0,0,4.22,3.41c.85.11,3.38-4.74,1.24-6C5.66,5,5.26,2.82,5.06,1.41,5,.53,5-.08,4.82,0Z" transform="translate(0.03 0)"/><path id="double_petal" data-name="double petal" class="cls-2" d="M8.84,6.51C6.57,4.27,8.39,0,7.9.14A5.48,5.48,0,0,0,5.34,1.49a7.58,7.58,0,0,0-1.8,2.7C2.42,2.61,2.06.62,1.84.82A5.36,5.36,0,0,0,.3,3.31,7.65,7.65,0,0,0,.06,6.67,7.29,7.29,0,0,0,1.22,9.82c.84,1.22,3.3,1.83,4.43,2A1.69,1.69,0,0,0,7,11.53C8.28,10.57,10.2,7.82,8.84,6.51Z" transform="translate(0.03 0)"/><path id="yellow_petal" data-name="yellow petal" class="cls-3" d="M10.74.88a5.43,5.43,0,0,0-2.82.65A7.47,7.47,0,0,0,5.4,3.82a7.32,7.32,0,0,0-1.4,3,5,5,0,0,0,1.94,5c.69.53,5.31-2.42,4.06-4.54C8.38,4.53,11.25.9,10.74.88Z" transform="translate(0.03 0)"/></g></svg>