<svg id="bw" xmlns="http://www.w3.org/2000/svg" viewBox="0 0 61.67 13.4"><defs><style>.cls-1,.cls-2,.cls-3{fill:#fff;}.cls-2{opacity:0.5;}.cls-3{opacity:0.8;}</style></defs><title>illustrapi-bw</title><g id="illustrapi"><path id="i" class="cls-1" d="M16.43,5h2V6.75h-2ZM16.5,14V7.9h1.81V14Z" transform="translate(-2.94 -3.18)"/><path id="p" class="cls-1" d="M56.65,16.58V9.64c0-.27,0-.55,0-.83A7.71,7.71,0,0,0,56.56,8h.69l.11,1.26-.11.23A2.07,2.07,0,0,1,58,8.25a2.36,2.36,0,0,1,1.42-.42,2.54,2.54,0,0,1,1.4.39,2.63,2.63,0,0,1,1,1.1A3.86,3.86,0,0,1,62.15,11a3.75,3.75,0,0,1-.34,1.64,2.63,2.63,0,0,1-1,1.08,2.57,2.57,0,0,1-1.4.38A2.3,2.3,0,0,1,58,13.64a2.1,2.1,0,0,1-.79-1.22l.13-.09v4.25Zm2.73-3.16a1.78,1.78,0,0,0,1.46-.64A2.75,2.75,0,0,0,61.37,11a2.88,2.88,0,0,0-.53-1.84,1.76,1.76,0,0,0-1.46-.65,1.8,1.8,0,0,0-1.48.63A2.9,2.9,0,0,0,57.38,11a2.88,2.88,0,0,0,.52,1.82A1.79,1.79,0,0,0,59.38,13.42Z" transform="translate(-2.94 -3.18)"/><path id="a" class="cls-1" d="M51.85,14.07a2.66,2.66,0,0,1-1.41-.38,2.59,2.59,0,0,1-.93-1.08A3.75,3.75,0,0,1,49.18,11a3.86,3.86,0,0,1,.33-1.65,2.61,2.61,0,0,1,.94-1.1,2.54,2.54,0,0,1,1.4-.39,2.4,2.4,0,0,1,1.44.42,2,2,0,0,1,.78,1.21l-.14.1V8h.73v6h-.73V12.34l.14.08a2,2,0,0,1-.78,1.22A2.34,2.34,0,0,1,51.85,14.07Zm.1-.65a1.77,1.77,0,0,0,1.47-.65A2.88,2.88,0,0,0,53.93,11a2.84,2.84,0,0,0-.52-1.84,2,2,0,0,0-2.94,0A2.82,2.82,0,0,0,49.93,11a2.7,2.7,0,0,0,.54,1.81A1.81,1.81,0,0,0,52,13.42Z" transform="translate(-2.94 -3.18)"/><path id="r" class="cls-1" d="M44.38,14V9.64c0-.29,0-.58,0-.87a8.52,8.52,0,0,0-.08-.87H46l.2,1.61-.2-.1a1.9,1.9,0,0,1,.7-1.23,2,2,0,0,1,1.24-.42,1.94,1.94,0,0,1,.36,0l.29.09,0,1.65a2.17,2.17,0,0,0-.89-.2,1.61,1.61,0,0,0-.8.18,1.23,1.23,0,0,0-.5.51,1.73,1.73,0,0,0-.17.78V14Z" transform="translate(-2.94 -3.18)"/><path id="t" class="cls-1" d="M38.94,9.26V7.9h4.51V9.26Zm4.51,3.26v1.39A1.85,1.85,0,0,1,43,14a3.12,3.12,0,0,1-.54,0,2.21,2.21,0,0,1-1.72-.64,2.51,2.51,0,0,1-.6-1.78V6.47l1.81-.59v5.74a1.11,1.11,0,0,0,.14.58.73.73,0,0,0,.35.3,1.18,1.18,0,0,0,.46.09,1.42,1.42,0,0,0,.29,0Z" transform="translate(-2.94 -3.18)"/><path id="s" class="cls-1" d="M36,14.08a4.58,4.58,0,0,1-2.75-.74l.49-1.26a3.62,3.62,0,0,0,1.08.53A4.05,4.05,0,0,0,36,12.8a1.43,1.43,0,0,0,.72-.15.46.46,0,0,0,.25-.42.4.4,0,0,0-.18-.35,1.82,1.82,0,0,0-.63-.23l-1-.25a2.47,2.47,0,0,1-1.3-.6,1.5,1.5,0,0,1-.42-1.11,1.6,1.6,0,0,1,.33-1A2.26,2.26,0,0,1,34.68,8a3.42,3.42,0,0,1,1.37-.26,4.16,4.16,0,0,1,1.27.2,4.05,4.05,0,0,1,1.12.56l-.51,1.21a4.09,4.09,0,0,0-1-.49A2.92,2.92,0,0,0,36,9.05a1.37,1.37,0,0,0-.7.16.48.48,0,0,0-.25.43.38.38,0,0,0,.15.32,1.42,1.42,0,0,0,.53.22l1,.23a2.66,2.66,0,0,1,1.36.65,1.56,1.56,0,0,1,.42,1.15,1.62,1.62,0,0,1-.69,1.37A3.2,3.2,0,0,1,36,14.08Z" transform="translate(-2.94 -3.18)"/><path id="u" class="cls-1" d="M28.6,14.08a2.16,2.16,0,0,1-1.71-.64,2.84,2.84,0,0,1-.56-1.92V7.9h1.81v3.66a1.26,1.26,0,0,0,.24.84.92.92,0,0,0,.72.26,1.14,1.14,0,0,0,.9-.38,1.47,1.47,0,0,0,.35-1V7.9h1.82V14H30.41V12.77h.16a2.06,2.06,0,0,1-.78,1A2.15,2.15,0,0,1,28.6,14.08Z" transform="translate(-2.94 -3.18)"/><path id="l" class="cls-1" d="M23.08,14V5.15h1.81V14Z" transform="translate(-2.94 -3.18)"/><path id="l-2" data-name="l" class="cls-1" d="M19.79,14V5.15H21.6V14Z" transform="translate(-2.94 -3.18)"/><path id="i-2" data-name="i" class="cls-1" d="M63.64,5.49h1v.93h-1Zm.1,8.49V8h.74v6Z" transform="translate(-2.94 -3.18)"/></g><g id="logo"><path id="teal_petal" data-name="teal petal" class="cls-1" d="M7.76,3.19a5.39,5.39,0,0,0-2.13,2,7.72,7.72,0,0,0-1.06,3.2,7.34,7.34,0,0,0,.28,3.29,5,5,0,0,0,4.22,3.41c.85.11,3.38-4.74,1.24-6C8.6,8.13,8.2,6,8,4.59,7.94,3.71,7.93,3.1,7.76,3.19Z" transform="translate(-2.94 -3.18)"/><path id="double_petal" data-name="double petal" class="cls-2" d="M11.78,9.69c-2.27-2.24-.45-6.48-.94-6.37A5.48,5.48,0,0,0,8.28,4.67a7.58,7.58,0,0,0-1.8,2.7C5.36,5.79,5,3.8,4.78,4A5.35,5.35,0,0,0,3.24,6.49,7.63,7.63,0,0,0,3,9.85,7.29,7.29,0,0,0,4.16,13C5,14.22,7.46,14.83,8.59,15a1.68,1.68,0,0,0,1.34-.29C11.22,13.75,13.14,11,11.78,9.69Z" transform="translate(-2.94 -3.18)"/><path id="yellow_petal" data-name="yellow petal" class="cls-3" d="M13.68,4.06a5.43,5.43,0,0,0-2.82.65A7.53,7.53,0,0,0,8.34,7a7.22,7.22,0,0,0-1.4,3A5,5,0,0,0,8.88,15c.69.53,5.31-2.42,4.06-4.54C11.32,7.71,14.19,4.08,13.68,4.06Z" transform="translate(-2.94 -3.18)"/></g></svg>